<svg width="437.28" height="612" xmlns="http://www.w3.org/2000/svg">

 <g>
  <title>background</title>
  <rect fill="none" id="canvas_background" height="614" width="439.28" y="-1" x="-1"/>
 </g>
 <g>
  <title>Layer 1</title>
  <rect id="svg_1" height="12.639" width="79.182" stroke-linecap="round" stroke-width="3.125" stroke="#000000" fill="#FFFFFF" y="267.705" x="766.601"/>
  <polygon id="svg_2" points="668.0270385742188,121.62899780273438 626.25,164.08401489257812 626.25,269.10400390625 646.426025390625,269.10400390625 646.426025390625,171.76699829101562 682.2950439453125,135.89599609375 " stroke-linecap="round" stroke-width="3.125" stroke="#000000" fill="none"/>
  <path id="svg_3" d="m1066.48499,182.487c0,0 -2.95801,-9.72601 -3.78003,-14.83499c-0.83496,-5.10901 -4.99597,-15.41202 -5.44104,-16.95001c-0.45093,-1.54199 -0.55591,-1.67801 -0.55591,-1.67801c-1.25903,-1.64297 -2.49805,-4.68997 -2.73901,-6.763c0,0 -1.12305,-9.49498 -1.55298,-11.54099c-0.44104,-2.05099 -2.5271,-7.47 -2.5271,-7.47c-1.51685,-2.56 -4.96289,-6.867 -6.68896,-8.33l-1.68896,-1.049c-1.82397,-0.944 -3.62402,-2.22501 -5.67505,-2.05701l-0.39197,0.108c-0.36499,-1.98399 -0.41797,-4.61299 -0.07605,-6.34999l0.32507,-1.63701c0.41101,-2.04599 0.40503,-3.31599 1.21802,-5.23599l5.88892,-6.52501c0.80908,-1.91899 1.42407,-4.90999 2.57703,-6.636l4.79004,-8.64c1.15405,-1.73099 1.47498,-5.802 1.94507,-7.842l4.15491,-17.338c0.46106,-2.03 0.49304,-5.37201 0.073,-7.418l-1.92395,-12.42101c-0.41504,-2.041 -1.93103,-6.918 -3.37402,-8.411l-5.88,-8.099c-1.44299,-1.49501 0.203,-0.993 -1.198,-2.511l-2.16101,-1.272c-1.40601,-1.521 -4.06396,-4.158 -4.68799,-5.857c-0.63599,-1.697 -4.18298,-0.45599 -5.46094,-2.084c0,0 -0.54504,-0.69299 -2.06714,-0.23399c-1.51086,0.462 -4.50586,-1.618 -6.02692,-0.65c-1.53699,0.965 -4.29602,-0.327 -4.29602,-0.327c-2.04596,-0.231 -4.92499,1.94801 -6.41101,1.197c-1.48499,-0.742 -4.36298,-1.62299 -6.38995,-1.946c0,0 -4.25903,-0.68999 -6.27405,-0.244c-2.01495,0.443 -7.87695,1.503 -7.87695,1.503c-2.02502,0.364 -5.29901,1.099 -7.28101,1.637l-2.86499,0.771c-1.98401,0.536 -4.617,1.054 -5.86401,1.159c-1.23804,0.097 -2.62903,1.424 -3.08502,2.94901c-0.461,1.521 -1.44897,4.00699 -2.18396,5.519c-0.73303,1.513 -2.91101,2.69899 -4.82605,2.64099c0,0 0,0 0.453,1.53801c0.44403,1.53999 1.32599,3.698 1.32599,3.698c0.78204,1.931 1.18201,4.304 0.87604,5.267c-0.31403,0.976 -0.94403,3.425 -1.41602,5.466l-0.61902,2.68599c-0.47296,2.03601 -1.67896,5.194 -2.685,7.009l-2.698,4.862c-1.00696,1.821 -1.97198,4.33301 -2.15497,5.58701c-0.18402,1.259 0.42999,3.105 1.36298,4.11299c0.92902,1.01201 0.58203,3.12601 -0.77496,4.69501l-4.42303,5.157c-1.34698,1.57401 -2.37097,3.892 -2.28796,5.151c0.10498,1.259 1.67798,3.069 3.51599,4.013l0.703,0.362c1.836,0.94501 3.02496,3.399 2.65497,5.45599l-0.47797,2.62801c-0.37402,2.062 -0.133,4.328 0.52899,5.052c0.65997,0.724 0.73297,2.09799 0.15601,3.05299c-0.578,0.96001 -0.51904,2.44901 0.13696,3.304c0.66205,0.86101 1.39502,2.487 1.63104,3.61501s-0.26605,2.938 -1.13104,4.034c-0.85699,1.08101 -1.255,2.90601 -0.88098,4.034c0.38098,1.13301 1.57703,2.19901 2.67499,2.377c1.086,0.17801 3.44403,0.367 5.229,0.425c1.784,0.05301 19.44598,1.59601 20.54199,1.63701c1.09601,0.02699 -0.15601,4.73599 -0.36096,6.80899l-0.00604,0.03601c-0.12097,1.261 0.06403,3.54399 0.23004,5.15399c-1.15399,0.174 -1.90204,0.28 -1.90204,0.28c-2.03497,0.27301 -4.711,1.85701 -5.94299,3.53601l-4.42798,5.61299c-1.23199,1.679 -3.26404,4.40701 -4.51599,6.05402c0,0 -18.29901,34.07098 -18.85004,36.09097l-4.82501,17.86301c-0.54596,2.01901 -1.18695,5.36099 -1.43799,7.43301l-3.242,27.39398c-0.242,2.07202 -0.68298,5.466 -0.96497,7.53302l-2.23499,16.263c-0.28204,2.06598 -0.46204,5.47198 -0.40906,7.55399l0.94403,33.62601c0.06299,2.08301 0.72601,5.38199 1.46899,7.32401c0,0 -3.44,16.36499 -6.16699,18.81998c0,0 -10.12,7.87601 -17.99603,10.68701l-92.40997,11.19c-4.164,0.28201 -9.59003,3.26401 -12.04498,6.642l-4.39502,6.01102c-2.45502,3.37799 -5.005,9.51599 -5.65503,13.64099l-0.84497,5.35199c-0.65601,4.133 -2.04102,10.814 -3.09003,14.854l-3.32599,68.70898c-1.03796,4.04602 0.30298,31 -0.83899,35.01904l-3.37903,41.76099c-1.14398,4.01501 -1.26501,10.54498 -2.953,13.91101c-1.20697,2.42297 -1.59399,12.01495 2.53302,12.65997l9.89703,1.28998l-1.52002,3.22504c-3.43799,3.70398 -7.96301,8.04999 -11.75598,9.633l-4.82605,2.03601c-3.79395,1.58301 -10.12494,3.79596 -14.06897,4.90997l-12.51697,3.53503c-3.95502,1.10596 -10.46002,2.755 -14.46899,3.64301l-0.24005,0.04999c-4.00201,0.89301 -7.98499,4.70599 -8.84595,8.487c-0.85004,3.77301 -0.54504,7.92401 0.68292,9.21198c1.23901,1.30402 6.55206,1.479 10.53308,2.47699c0,0 96.31696,0.14404 99.37793,-0.53296c3.05902,-0.68304 5.92804,-4.58203 6.38904,-8.66205l0.71497,-6.26398c0.46204,-4.08899 -0.53497,-10.34998 -2.21399,-13.94202c-1.67999,-3.58301 -3.55798,-9.83899 -4.177,-13.89899l-0.43896,-2.88599c3.58197,-0.35498 6.10498,-0.62903 6.10498,-0.62903c5.57202,-1.95197 6.32703,-22.77496 4.64801,-28.25897l0.41998,-96.59302c1.06,-4.04199 0.76398,-10.711 0.76398,-15.42297l1.94702,-11.677c-0.31799,-4.16302 3.41602,-12.22302 14.18604,-15.21204c9.26996,-2.57397 138.008,2.16205 138.008,2.16205c4.13995,0.58795 9.54199,0.71796 13.72296,0.54498l9.41803,-0.38702c4.16895,-0.16998 9.29004,-11.85797 10.42798,-15.099c1.13293,-3.23199 3.06201,-9.15997 4.29102,-13.14697l0.01001,-0.04703c1.229,-3.98898 1.979,-10.67599 1.70093,-14.84c0,0 -1.63794,-23.73798 -1.323,-26.52899c0.05408,-0.492 -0.25903,-1.392 -0.80298,-2.52701c1.03601,-1.78 2.10596,-4.44699 2.48108,-6.26999l7.97498,-39.01801c0.41797,-2.04599 0.99695,-5.41501 1.29102,-7.48099l6.771,-48.64502c0.28796,-2.07199 0.58301,-5.47198 0.646,-7.565l0.85901,-26.422c0.06091,-2.091 -0.37708,-5.43298 -0.98804,-7.42099z" stroke-linecap="round" stroke-width="2" stroke="#000000" fill="#D9D9D9"/>
  <path id="svg_4" d="m1018.11401,279.698c0,0 0.05103,-0.14499 0.12799,-0.37399c-0.30902,0.39798 -0.39099,0.56699 -0.12799,0.37399z" stroke-linecap="round" stroke-width="2" stroke="#000000" fill="#D9D9D9"/>
  <g id="svg_5">
   <line id="svg_6" y2="299.347" x2="609.857" y1="585.371" x1="609.857" stroke-linecap="round" stroke-width="3.125" stroke="#000000" fill="none"/>
   <line id="svg_7" y2="585.76" x2="665.41" y1="299.347" x1="665.41" stroke-linecap="round" stroke-width="3.125" stroke="#000000" fill="none"/>
  </g>
  <polygon id="svg_8" points="662.7909545898438,264.7690124511719 610.9200439453125,264.7690124511719 596.1319580078125,271.5989990234375 596.1319580078125,288.2869873046875 679.0159912109375,288.2869873046875 679.0159912109375,271.5989990234375 " stroke-linecap="round" stroke-width="3.125" stroke="#000000" fill="#FFFFFF"/>
  <polygon id="svg_9" points="680.39599609375,286.6180114746094 597.0560302734375,286.6180114746094 597.0560302734375,305.7869873046875 610.3399658203125,319.8380126953125 665.7639770507812,319.8380126953125 680.39599609375,305.7869873046875 " stroke-linecap="round" stroke-width="3.125" stroke="#000000" fill="#FFFFFF"/>
  <rect id="svg_10" height="11.581" width="373.189" stroke-linecap="round" stroke-width="3.125" stroke="#000000" fill="#FFFFFF" y="277.942" x="508.356"/>
  <polygon id="svg_11" points="709.8610229492188,607.9840087890625 516.458984375,607.9840087890625 526.9929809570312,587.2860107421875 687.0549926757812,587.2860107421875 879.5230102539062,600.1959838867188 879.5230102539062,607.9840087890625 " stroke-width="3.125" stroke="#000000" fill="#FFFFFF"/>
  <rect id="svg_12" height="183.568" width="17.799" stroke-linecap="round" stroke-width="3.125" stroke="#000000" fill="#FFFFFF" y="52.62321" x="669.15163"/>
  <path id="svg_13" d="m920.07202,431.68201c-1.55902,0.021 -3.16998,1.24402 -3.58203,2.71301c-0.41095,1.46899 -0.09198,3.76398 0.71106,5.10199l3.49396,5.82202c0.802,1.33795 2.71899,2.62299 4.26099,2.85498l62.13104,9.40601c1.54199,0.23401 4.06299,0.22998 5.604,-0.01001l34.35498,-5.32599c1.53992,-0.23999 3.26404,-1.62299 3.828,-3.07599l2.43298,-6.25604c0.56494,-1.453 0.69397,-3.87299 0.28601,-5.37897l-1.29492,-4.78302c-0.40808,-1.50397 -2.01807,-2.71698 -3.57605,-2.69299l-108.65002,1.625z" stroke-width="3.125" stroke="#000000" fill="#FFFFFF"/>
  <g id="svg_14">
   <path id="svg_15" d="m1088.33203,554.56201c0,-0.586 -0.24402,-1.06403 -0.54504,-1.06403l-8.33801,0c-0.29895,0 -0.54492,0.479 -0.54492,1.06403l0,33.76599c0,0.586 0.24597,1.06403 0.54492,1.06403l8.33801,0c0.30103,0 0.54504,-0.479 0.54504,-1.06403l0,-33.76599z" stroke-width="3.125" stroke="#000000" fill="#FFFFFF"/>
   <path id="svg_16" d="m920.47998,554.14301c0,-0.586 -0.24402,-1.06403 -0.54498,-1.06403l-8.33801,0c-0.29901,0 -0.54498,0.479 -0.54498,1.06403l0,33.76599c0,0.586 0.24597,1.06403 0.54498,1.06403l8.33801,0c0.30096,0 0.54498,-0.479 0.54498,-1.06403l0,-33.76599z" stroke-width="3.125" stroke="#000000" fill="#FFFFFF"/>
   <path id="svg_17" d="m1010.74402,552.93903c-10.75,8.06097 -22.086,0.422 -22.086,0l0,-57.64099c0,-0.422 0.31799,-0.76801 0.70898,-0.76801l20.66803,0c0.38898,0 0.70697,0.34601 0.70496,0.76801l0.00403,57.64099z" stroke-width="3.125" stroke="#000000" fill="#FFFFFF"/>
   <path id="svg_18" d="m837.37097,552.92798c0.00201,-0.38898 0.32202,-0.72998 0.711,-0.76001l152.57202,0.05902c0.39099,-0.02704 1.02698,-0.05103 1.41602,-0.05103l15.75995,0c0.39105,0 1.02704,0.02301 1.41602,0.05103l151.34802,-0.05902c0.38892,0.02704 0.70703,0.37103 0.70703,0.76001l0,28.30701c0,0.38898 -0.31812,0.69501 -0.70911,0.68201l-8.39795,-0.33002c-0.39099,-0.01599 -0.70898,-0.34802 -0.70898,-0.73798l0,-15.94299c0,-0.39105 -0.31799,-0.70905 -0.70898,-0.70905l-151.28302,9l-151.59399,-9c-0.38898,0 -0.70697,0.31799 -0.70697,0.70905l0,13.55695c0,0.39105 -0.32001,0.70905 -0.70905,0.70905l-8.47699,-0.01202c-0.39099,-0.00201 -0.70697,-0.32001 -0.70502,-0.711l0.07001,-25.521z" stroke-width="3.125" stroke="#000000" fill="#FFFFFF"/>
   <path id="svg_19" d="m1010.70697,552.91803c0,-0.414 -0.57202,-0.75201 -1.26801,-0.75201l-19.38501,0c-0.69897,0 -1.26996,0.33801 -1.26996,0.75201l1.01196,23.80902c0,0.414 0.56799,0.75 1.26801,0.75l17.36298,0c0.69702,0 1.26801,-0.336 1.26801,-0.75l1.01202,-23.80902z" stroke-width="3.125" stroke="#000000" fill="#FFFFFF"/>
   <g id="svg_20">
    <path id="svg_21" d="m1078.59802,607.15198c0,0.38898 -0.36902,0.70898 -0.81799,0.70898l-2.86902,0c-0.45105,0 -0.81799,-0.32001 -0.81799,-0.70898l0,-28.854c0,-0.38898 0.36694,-0.70898 0.81799,-0.70898l2.86902,0c0.44897,0 0.81799,0.32001 0.81799,0.70898l0,28.854z" stroke-width="2" stroke="#000000"/>
    <rect id="svg_22" height="22.5" width="12.746" stroke-width="2" stroke="#000000" y="577.623" x="1077.652"/>
    <path id="svg_23" d="m1093.01404,607.14099c0,0.38898 -0.36707,0.70898 -0.81812,0.70898l-2.8689,0c-0.4491,0 -0.81799,-0.32001 -0.81799,-0.70898l0,-28.854c0,-0.38898 0.3689,-0.70898 0.81799,-0.70898l2.8689,0c0.45105,0 0.81812,0.32001 0.81812,0.70898l0,28.854z" stroke-width="2" stroke="#000000"/>
   </g>
   <g id="svg_24">
    <path id="svg_25" d="m910.59802,606.94299c0,0.39099 -0.36902,0.70898 -0.81799,0.70898l-2.86902,0c-0.45099,0 -0.81799,-0.31799 -0.81799,-0.70898l0,-28.85199c0,-0.39099 0.367,-0.70898 0.81799,-0.70898l2.86902,0c0.44897,0 0.81799,0.31799 0.81799,0.70898l0,28.85199z" stroke-width="2" stroke="#000000"/>
    <rect id="svg_26" height="22.498" width="12.746" stroke-width="2" stroke="#000000" y="577.416" x="909.652"/>
    <path id="svg_27" d="m925.01398,606.93201c0,0.39099 -0.367,0.70898 -0.81799,0.70898l-2.86902,0c-0.44897,0 -0.81799,-0.31799 -0.81799,-0.70898l0,-28.85199c0,-0.39099 0.36902,-0.70898 0.81799,-0.70898l2.86902,0c0.45099,0 0.81799,0.31799 0.81799,0.70898l0,28.85199z" stroke-width="2" stroke="#000000"/>
   </g>
   <path id="svg_28" d="m1005.47302,468.95099c0,-0.39099 -0.32001,-0.70898 -0.70898,-0.70898l-10.85199,0c-0.39105,0 -0.70905,0.31799 -0.70905,0.70898l0,22.508c0,0.39099 0.31799,0.70898 0.70905,0.70898l10.85199,0c0.38898,0 0.70898,-0.31799 0.70898,-0.70898l0,-22.508z" stroke-width="3.125" stroke="#000000" fill="#FFFFFF"/>
   <g id="svg_29">
    <path id="svg_30" d="m837.97302,607.22699c0,0.39099 -0.36902,0.70898 -0.81799,0.70898l-2.86902,0c-0.45099,0 -0.81799,-0.31799 -0.81799,-0.70898l0,-28.85199c0,-0.39099 0.367,-0.70898 0.81799,-0.70898l2.86902,0c0.44897,0 0.81799,0.31799 0.81799,0.70898l0,28.85199z" stroke-width="2" stroke="#000000"/>
    <rect id="svg_31" height="22.498" width="12.746" stroke-width="2" stroke="#000000" y="577.699" x="837.027"/>
    <path id="svg_32" d="m852.38898,607.21503c0,0.39099 -0.367,0.70898 -0.81799,0.70898l-2.86902,0c-0.44897,0 -0.81799,-0.31799 -0.81799,-0.70898l0,-28.85199c0,-0.39099 0.36902,-0.70898 0.81799,-0.70898l2.86902,0c0.45099,0 0.81799,0.31799 0.81799,0.70898l0,28.85199z" stroke-width="2" stroke="#000000"/>
   </g>
   <g id="svg_33">
    <path id="svg_34" d="m1151.09802,606.94299c0,0.39099 -0.36902,0.70898 -0.81799,0.70898l-2.86902,0c-0.45093,0 -0.81799,-0.31799 -0.81799,-0.70898l0,-28.85199c0,-0.39099 0.36707,-0.70898 0.81799,-0.70898l2.86902,0c0.44897,0 0.81799,0.31799 0.81799,0.70898l0,28.85199z" stroke-width="2" stroke="#000000"/>
    <rect id="svg_35" height="22.498" width="12.746" stroke-width="2" stroke="#000000" y="577.416" x="1150.152"/>
    <path id="svg_36" d="m1165.51392,606.93201c0,0.39099 -0.36694,0.70898 -0.81799,0.70898l-2.86902,0c-0.44897,0 -0.81787,-0.31799 -0.81787,-0.70898l0,-28.85199c0,-0.39099 0.3689,-0.70898 0.81787,-0.70898l2.86902,0c0.45105,0 0.81799,0.31799 0.81799,0.70898l0,28.85199z" stroke-width="2" stroke="#000000"/>
   </g>
   <path id="svg_37" d="m1004.492,553.40198c0,-0.586 -0.24402,-1.06403 -0.54498,-1.06403l-8.33801,0c-0.29901,0 -0.54498,0.479 -0.54498,1.06403l0,33.76599c0,0.586 0.24597,1.06403 0.54498,1.06403l8.33801,0c0.30096,0 0.54498,-0.479 0.54498,-1.06403l0,-33.76599z" stroke-width="3.125" stroke="#000000" fill="#FFFFFF"/>
   <g id="svg_38">
    <path id="svg_39" d="m994.97302,607.48798c0,0.39099 -0.36902,0.70898 -0.81799,0.70898l-2.86902,0c-0.45099,0 -0.81799,-0.31799 -0.81799,-0.70898l0,-28.85199c0,-0.39099 0.367,-0.70898 0.81799,-0.70898l2.86902,0c0.44897,0 0.81799,0.31799 0.81799,0.70898l0,28.85199z" stroke-width="2" stroke="#000000"/>
    <rect id="svg_40" height="22.498" width="12.746" stroke-width="2" stroke="#000000" y="577.961" x="994.027"/>
    <path id="svg_41" d="m1009.38898,607.47699c0,0.39099 -0.367,0.70898 -0.81799,0.70898l-2.86902,0c-0.44897,0 -0.81799,-0.31799 -0.81799,-0.70898l0,-28.85199c0,-0.39099 0.36902,-0.70898 0.81799,-0.70898l2.86902,0c0.45099,0 0.81799,0.31799 0.81799,0.70898l0,28.85199z" stroke-width="2" stroke="#000000"/>
   </g>
  </g>
  <path id="svg_42" d="m1003.35199,459.52899l-71.45898,-12.58801c-3.79602,-0.66998 -7.44501,2.04498 -8.15302,6.06201c-0.70801,4.01599 1.79498,7.81201 5.591,8.48199l63.80701,11.23999l10.21399,-13.19598z" stroke-width="3.125" stroke="#000000" fill="#FFFFFF"/>
  <path id="svg_43" d="m1028.19299,451.22699l-33.84601,6.81598c-3.77802,0.76001 -6.18799,4.617 -5.383,8.61505c0.80499,3.99799 4.52002,6.62299 8.297,5.86096l36.86694,-7.422l-5.93494,-13.87z" stroke-width="3.125" stroke="#000000" fill="#FFFFFF"/>
  <path id="svg_44" d="m900.46399,412.492c0.29401,0.93903 1.22601,2.78101 2.07202,4.08997l10.17297,15.75201c0.84601,1.30902 2.80902,2.48999 4.36102,2.62299l19.13898,1.65002c1.55298,0.13501 4.08801,0.414 5.633,0.62299l43.52899,5.86499c1.54504,0.20905 4.05701,0.117 5.58203,-0.20294l36.12,-7.59601c1.526,-0.32001 3.79602,-1.34601 5.04395,-2.27899l18.323,-13.69904c1.24902,-0.93402 2.50513,-2.95099 2.79309,-4.48401l0.23694,-1.26599c0.28711,-1.53101 -0.75403,-2.78497 -2.31189,-2.78497l-148.3941,0c-1.55896,0 -2.59399,0.76996 -2.29999,1.70898z" stroke-width="3.125" stroke="#000000" fill="#FFFFFF"/>
  <path id="svg_45" d="m1086.23193,380.896c0.66406,1.62701 0.02698,3.43802 -1.41602,4.02701l-10.77295,4.40399c-1.44189,0.59 -3.16797,-0.258 -3.83191,-1.883l-6.05298,-14.811c-0.66516,-1.62698 -0.0271,-3.439 1.41394,-4.02798l10.7749,-4.40302c1.44214,-0.59 3.16699,0.258 3.83215,1.883l6.05286,14.811z" stroke-width="3.125" stroke="#000000" fill="#FFFFFF"/>
  <path id="svg_46" d="m1070.72498,328.33801c0.229,1.741 -0.84802,3.332 -2.39392,3.535l-11.54016,1.51898c-1.54492,0.20401 -2.99792,-1.056 -3.22693,-2.79599l-2.08801,-15.86301c-0.22888,-1.742 0.849,-3.332 2.39502,-3.535l11.53894,-1.51999c1.54614,-0.203 2.99805,1.056 3.22705,2.797l2.08801,15.86301z" stroke-width="3.125" stroke="#000000" fill="#FFFFFF"/>
  <path id="svg_47" d="m885.93201,421.953c-1.54498,-0.021 -4.04102,0.25 -5.54602,0.604l-3.38995,0.797c-1.43805,0.63898 -3.59705,0.26202 -4.797,-0.84198c0,0 -6.08002,-8.117 -6.396,-12.59399s0.28699,-3.27106 0.93896,-6.01202c0.65002,-2.73999 3.29901,-8.57001 6.84601,-9.28699c3.54797,-0.71704 38.91199,-1.77301 40.45697,-1.75403l119.34906,1.375c1.54602,0.01801 14.62195,1.00201 14.62195,1.00201c1.54102,0.12701 4.00903,0.65997 5.48206,1.18402c0,0 5.08093,3.06396 5.50598,4.74799l0.57397,2.27698c0.42395,1.68604 0.52307,4.46899 0.22107,6.18604c0,0 -0.50903,2.87897 -1.56714,4.55896c-1.05994,1.67999 -5.21497,6.38904 -5.21497,6.38904c-1.0929,1.23798 -3.24597,2.37897 -4.78503,2.53497l-6.26501,0.63501c-1.53882,0.15601 -4.06189,0.26599 -5.60693,0.24402l-150.42798,-2.04602z" stroke-width="3.125" stroke="#000000" fill="#FFFFFF"/>
  <path id="svg_48" d="m998.45697,396.17603c6.79199,28.29901 11.77301,51.36298 11.12701,51.52002l-18.21399,-0.65002c-0.646,0.15399 -6.36005,-17.71301 -13.15302,-46.01202l0,0c-6.79303,-28.30496 -11.77399,-51.36996 -11.12701,-51.52496l17.896,-4.29501c0.64703,-0.15701 6.67603,22.65598 13.47101,50.96201l0,0z" stroke-width="3.125" stroke="#000000" fill="#FFFFFF"/>
  <path id="svg_49" d="m991.56598,358.405c-2.99103,-12.46301 -8.13,-32.70999 -8.09497,-32.73999c0,0 1.659,-9.62302 8.08899,-9.54901s-53.45099,-0.815 -46.26801,-0.69101s10.85901,8.36902 10.85901,8.36902c1.86896,9.40399 5.18201,24.24899 9.17999,40.90799c6.76599,28.18802 12.92902,44.871 13.76697,44.67001l23.20001,0.43402c0.83905,-0.20203 -3.966,-23.21304 -10.73199,-51.40103z" stroke-width="3.125" stroke="#000000" fill="#FFFFFF"/>
  <path id="svg_50" d="m1020.01703,460.78497c0,0 -2.565,1.92401 -2.77802,4.27301s0.85504,4.06201 7.90601,5.12897c7.05298,1.06799 8.97705,1.07001 15.81299,-0.21295c6.83704,-1.28503 47.64905,-24.78503 51.92407,-27.56403s5.3429,-6.19897 5.7699,-12.82202c0.42712,-6.625 -14.10291,-38.24799 -14.10291,-38.24799s-22.43811,-55.771 -23.29199,-60.04498c-0.854,-4.27301 -1.06714,-8.76001 1.06897,-17.73401c2.13696,-8.97598 30.7699,-163.88998 33.33398,-167.311s6.19592,-2.35101 6.19592,-2.35101s2.99109,1.92401 5.76904,0.854c2.77905,-1.06998 2.56409,-4.48499 1.49609,-7.69199s-17.09399,-7.267 -19.87207,-3.205c-2.99097,5.76799 -46.79602,170.304 -46.36792,189.53401s29.35193,85.897 29.35193,85.897s9.11096,23.64496 6.97498,26.63501s-7.69299,9.26398 -24.146,12.896c-9.23999,2.04095 -30.98291,9.18896 -30.98291,9.18896l-4.06207,2.77802z" stroke-width="3.125" stroke="#000000" fill="#FFFFFF"/>
  <circle id="svg_51" r="2.885" cy="454.906" cx="931.662"/>
  <path id="svg_52" d="m1075.06592,309.14001c-0.21497,1.116 -1.21289,1.87201 -2.22095,1.67899l-7.521,-1.44c-1.00806,-0.19199 -1.65698,-1.26498 -1.44299,-2.38199l1.94897,-10.173c0.21411,-1.117 1.21301,-1.87201 2.22009,-1.67899l7.52197,1.44098c1.00793,0.19302 1.65796,1.26401 1.44287,2.38101l-1.94897,10.173z" stroke-width="3.125" stroke="#000000" fill="#FFFFFF"/>
  <line id="svg_53" y2="326.029" x2="420.454" y1="326.029" x1="420.454" stroke-width="3.125" stroke="#E30613" fill="none"/>
  <path id="svg_54" d="m336.48499,183.487c0,0 -2.95798,-9.72601 -3.78,-14.83499c-0.83499,-5.10901 -4.99597,-15.41202 -5.44098,-16.95001c-0.45102,-1.54199 -0.556,-1.67801 -0.556,-1.67801c-1.259,-1.64297 -2.49802,-4.68997 -2.73901,-6.763c0,0 -1.12299,-9.49498 -1.55301,-11.54099c-0.44098,-2.05099 -2.52698,-7.47 -2.52698,-7.47c-1.517,-2.56 -4.96301,-6.867 -6.689,-8.33l-1.68903,-1.049c-1.82397,-0.944 -3.62399,-2.22501 -5.67499,-2.05701l-0.392,0.108c-0.36499,-1.98399 -0.418,-4.61299 -0.07599,-6.34999l0.32498,-1.63701c0.41101,-2.04599 0.405,-3.31599 1.21802,-5.23599l5.88898,-6.52501c0.80902,-1.91899 1.42401,-4.90999 2.57703,-6.636l4.78998,-8.64c1.15402,-1.73099 1.47501,-5.802 1.94501,-7.842l4.155,-17.338c0.461,-2.03 0.49301,-5.37201 0.073,-7.418l-1.92401,-12.42101c-0.41498,-2.041 -1.931,-6.918 -3.37399,-8.411l-5.88,-8.099c-1.44299,-1.49501 0.203,-0.993 -1.198,-2.511l-2.16098,-1.272c-1.40601,-1.521 -4.064,-4.158 -4.68802,-5.857c-0.63599,-1.697 -4.18298,-0.45599 -5.461,-2.084c0,0 -0.54498,-0.69299 -2.06699,-0.23399c-1.51102,0.462 -4.50601,-1.618 -6.02701,-0.65c-1.53699,0.965 -4.29599,-0.327 -4.29599,-0.327c-2.04602,-0.231 -4.92502,1.94801 -6.41101,1.197c-1.48499,-0.742 -4.36301,-1.62299 -6.38998,-1.946c0,0 -4.259,-0.68999 -6.27402,-0.244c-2.01498,0.443 -7.87698,1.503 -7.87698,1.503c-2.02502,0.364 -5.29901,1.099 -7.28101,1.637l-2.86501,0.771c-1.98399,0.536 -4.61699,1.054 -5.864,1.159c-1.23801,0.097 -2.62901,1.424 -3.08499,2.94901c-0.46101,1.521 -1.44901,4.00699 -2.18402,5.519c-0.73299,1.513 -2.91098,2.69899 -4.82599,2.64099c0,0 0,0 0.453,1.53801c0.444,1.53999 1.32599,3.698 1.32599,3.698c0.78201,1.931 1.18201,4.304 0.87601,5.267c-0.314,0.976 -0.944,3.425 -1.416,5.466l-0.619,2.68599c-0.47299,2.03601 -1.679,5.194 -2.685,7.009l-2.698,4.862c-1.007,1.821 -1.972,4.33301 -2.155,5.58701c-0.18399,1.259 0.42999,3.105 1.36301,4.11299c0.92899,1.01201 0.582,3.12601 -0.77501,4.69501l-4.42299,5.157c-1.34702,1.57401 -2.371,3.892 -2.28801,5.151c0.105,1.259 1.67801,3.069 3.51599,4.013l0.70302,0.362c1.836,0.94501 3.02499,3.399 2.655,5.45599l-0.47801,2.62801c-0.37399,2.062 -0.133,4.328 0.52901,5.052c0.66,0.724 0.733,2.09799 0.15601,3.05299c-0.578,0.96001 -0.51901,2.44901 0.13699,3.304c0.66199,0.86101 1.39499,2.487 1.631,3.61501s-0.26601,2.938 -1.131,4.034c-0.85699,1.08101 -1.255,2.90601 -0.881,4.034c0.381,1.13301 1.577,2.19901 2.675,2.377c1.086,0.17801 3.444,0.367 5.22899,0.425c1.78401,0.05301 19.446,1.59601 20.54201,1.63701c1.09598,0.02699 -0.15601,4.73599 -0.36099,6.80899l-0.00601,0.03601c-0.121,1.261 0.064,3.54399 0.22998,5.15399c-1.15399,0.174 -1.90198,0.28 -1.90198,0.28c-2.035,0.27301 -4.711,1.85701 -5.94299,3.53601l-4.42801,5.61299c-1.23201,1.679 -3.26401,4.40701 -4.51599,6.05402c0,0 -18.29901,34.07098 -18.85002,36.09097l-4.825,17.86301c-0.54599,2.01901 -1.18698,5.36099 -1.43799,7.43301l-3.242,27.39398c-0.242,2.07202 -0.683,5.466 -0.965,7.53302l-2.235,16.26199c-0.28201,2.06601 -0.46201,5.47299 -0.40901,7.55499l0.944,33.625c0.06302,2.08401 0.72601,5.383 1.46901,7.32401c0,0 -3.44,16.36499 -6.16701,18.82001c0,0 -10.12,7.87598 -17.99599,10.68698l-92.41,11.19c-4.164,0.28201 -9.59,3.26401 -12.045,6.642l-4.395,6.01102c-2.455,3.37799 -5.005,9.51599 -5.655,13.64099l-0.845,5.35199c-0.65601,4.13303 -2.041,10.81403 -3.09,14.854l-3.326,68.70901c-1.03799,4.04602 0.30301,31 -0.83899,35.01898l-3.379,41.76099c-1.14401,4.01501 -1.26501,10.54504 -2.953,13.91101c-1.207,2.42303 -1.59399,12.01501 2.53299,12.66003l9.897,1.28998l-1.52,3.22498c-3.438,3.70404 -7.963,8.05005 -11.756,9.63306l-4.82599,2.03595c-3.79401,1.58301 -10.125,3.79602 -14.069,4.91003l-12.517,3.53497c-3.95502,1.10602 -10.46002,2.755 -14.46902,3.64301l-0.23999,0.04999c-4.00198,0.89301 -7.98499,4.70599 -8.84601,8.487c-0.84998,3.77301 -0.54498,7.92401 0.68301,9.21204c1.23898,1.30396 6.552,1.479 10.53299,2.47699c0,0 96.317,0.14398 99.37799,-0.53302c3.05901,-0.68298 5.92801,-4.58197 6.38901,-8.66199l0.715,-6.26398c0.46201,-4.08905 -0.535,-10.35004 -2.214,-13.94202c-1.67999,-3.58301 -3.558,-9.83899 -4.17699,-13.89899l-0.43901,-2.88605c3.582,-0.35498 6.105,-0.62897 6.105,-0.62897c5.57201,-1.95203 6.32701,-22.77502 4.64801,-28.25903l0.42,-96.59296c1.06,-4.04199 0.76399,-10.711 0.76399,-15.42303l1.94701,-11.677c-0.31799,-4.16296 3.416,-12.22296 14.186,-15.21198c9.27,-2.57397 138.00801,2.16199 138.00801,2.16199c4.13998,0.58801 9.54199,0.71802 13.72299,0.54498l9.418,-0.38696c4.16901,-0.16998 9.29001,-11.858 10.42798,-15.099c1.13303,-3.23203 3.06201,-9.16 4.29102,-13.147l0.01001,-0.047c1.229,-3.98901 1.979,-10.67599 1.70099,-14.84c0,0 -1.638,-23.73804 -1.323,-26.52902c0.05399,-0.492 -0.259,-1.392 -0.80301,-2.52698c1.03601,-1.78 2.10602,-4.44702 2.48102,-6.27002l7.97498,-39.01801c0.418,-2.04599 0.99701,-5.41501 1.29102,-7.48099l6.771,-48.64502c0.28799,-2.07199 0.58301,-5.47198 0.646,-7.565l0.85901,-26.422c0.061,-2.09 -0.37698,-5.43198 -0.98801,-7.41998z" stroke-linecap="round" stroke-width="2" stroke="#000000" fill="#D9D9D9"/>
  <path id="svg_55" d="m189.07201,432.68201c-1.55899,0.021 -3.17,1.24402 -3.582,2.71301c-0.411,1.46899 -0.092,3.76398 0.711,5.10199l3.494,5.82202c0.802,1.33795 2.71901,2.62299 4.261,2.85498l62.131,9.40601c1.54202,0.23401 4.06302,0.22998 5.604,-0.01001l34.35501,-5.32599c1.53998,-0.23999 3.26398,-1.62299 3.828,-3.07599l2.43298,-6.25604c0.565,-1.453 0.694,-3.87299 0.28601,-5.37897l-1.29501,-4.78302c-0.40799,-1.50397 -2.01801,-2.71698 -3.57599,-2.69299l-108.65001,1.625z" stroke-width="3.125" stroke="#000000" fill="#FFFFFF"/>
  <g id="svg_56">
   <path id="svg_57" d="m357.332,555.56201c0,-0.586 -0.24399,-1.06403 -0.54501,-1.06403l-8.33798,0c-0.29901,0 -0.54501,0.479 -0.54501,1.06403l0,33.76599c0,0.586 0.246,1.06403 0.54501,1.06403l8.33798,0c0.30103,0 0.54501,-0.479 0.54501,-1.06403l0,-33.76599z" stroke-width="3.125" stroke="#000000" fill="#FFFFFF"/>
   <path id="svg_58" d="m189.48,555.14301c0,-0.586 -0.244,-1.06403 -0.545,-1.06403l-8.338,0c-0.299,0 -0.545,0.479 -0.545,1.06403l0,33.76599c0,0.586 0.246,1.06403 0.545,1.06403l8.338,0c0.30099,0 0.545,-0.479 0.545,-1.06403l0,-33.76599z" stroke-width="3.125" stroke="#000000" fill="#FFFFFF"/>
   <path id="svg_59" d="m279.74399,553.93903c-10.75,8.06097 -22.086,0.422 -22.086,0l0,-57.64099c0,-0.422 0.31799,-0.76801 0.70901,-0.76801l20.668,0c0.38901,0 0.707,0.34601 0.70499,0.76801l0.004,57.64099z" stroke-width="3.125" stroke="#000000" fill="#FFFFFF"/>
   <path id="svg_60" d="m106.371,553.92798c0.002,-0.38898 0.32199,-0.72998 0.711,-0.76001l152.57202,0.05902c0.39099,-0.02704 1.02698,-0.05103 1.41599,-0.05103l15.76001,0c0.39099,0 1.02698,0.02301 1.41599,0.05103l151.34802,-0.05902c0.38901,0.02704 0.707,0.37103 0.707,0.76001l0,28.30701c0,0.38898 -0.31799,0.69501 -0.70901,0.68201l-8.39798,-0.33002c-0.39102,-0.01599 -0.70901,-0.34802 -0.70901,-0.73798l0,-15.94299c0,-0.39105 -0.31799,-0.70905 -0.70901,-0.70905l-151.28299,9l-151.59399,-9c-0.38899,0 -0.707,0.31799 -0.707,0.70905l0,13.55695c0,0.39105 -0.31999,0.70905 -0.709,0.70905l-8.47699,-0.01202c-0.39101,-0.00201 -0.707,-0.32001 -0.705,-0.711l0.06998,-25.521z" stroke-width="3.125" stroke="#000000" fill="#FFFFFF"/>
   <path id="svg_61" d="m279.707,553.91803c0,-0.414 -0.57199,-0.75201 -1.26801,-0.75201l-19.38498,0c-0.69901,0 -1.27002,0.33801 -1.27002,0.75201l1.01199,23.80902c0,0.414 0.56799,0.75 1.26801,0.75l17.36301,0c0.69699,0 1.26801,-0.336 1.26801,-0.75l1.01199,-23.80902z" stroke-width="3.125" stroke="#000000" fill="#FFFFFF"/>
   <g id="svg_62">
    <path id="svg_63" d="m347.59799,608.15198c0,0.38904 -0.36899,0.70905 -0.81799,0.70905l-2.87,0c-0.45102,0 -0.81799,-0.32001 -0.81799,-0.70905l0,-28.854c0,-0.38898 0.36697,-0.70898 0.81799,-0.70898l2.86899,0c0.44901,0 0.81802,0.32001 0.81802,0.70898l0,28.854l0.00098,0z" stroke-width="2" stroke="#000000"/>
    <rect id="svg_64" height="22.5" width="12.746" stroke-width="2" stroke="#000000" y="578.623" x="346.652"/>
    <path id="svg_65" d="m362.01401,608.14099c0,0.38898 -0.367,0.70898 -0.81802,0.70898l-2.86899,0c-0.44901,0 -0.81799,-0.32001 -0.81799,-0.70898l0,-28.854c0,-0.38898 0.36899,-0.70898 0.81799,-0.70898l2.86899,0c0.45102,0 0.81802,0.32001 0.81802,0.70898l0,28.854z" stroke-width="2" stroke="#000000"/>
   </g>
   <g id="svg_66">
    <path id="svg_67" d="m179.59801,607.94299c0,0.39099 -0.369,0.70898 -0.81799,0.70898l-2.869,0c-0.451,0 -0.81799,-0.31799 -0.81799,-0.70898l0,-28.85199c0,-0.39099 0.36699,-0.70898 0.81799,-0.70898l2.869,0c0.44899,0 0.81799,0.31799 0.81799,0.70898l0,28.85199z" stroke-width="2" stroke="#000000"/>
    <rect id="svg_68" height="22.498" width="12.746" stroke-width="2" stroke="#000000" y="578.416" x="178.652"/>
    <path id="svg_69" d="m194.01401,607.93201c0,0.39099 -0.367,0.70898 -0.81799,0.70898l-2.869,0c-0.44901,0 -0.81801,-0.31799 -0.81801,-0.70898l0,-28.85199c0,-0.39099 0.369,-0.70898 0.81801,-0.70898l2.869,0c0.45099,0 0.81799,0.31799 0.81799,0.70898l0,28.85199z" stroke-width="2" stroke="#000000"/>
   </g>
   <path id="svg_70" d="m274.47299,469.95099c0,-0.39099 -0.31998,-0.70898 -0.70898,-0.70898l-10.85202,0c-0.39099,0 -0.70898,0.31799 -0.70898,0.70898l0,22.508c0,0.39099 0.31799,0.70898 0.70898,0.70898l10.85202,0c0.38901,0 0.70898,-0.31799 0.70898,-0.70898l0,-22.508z" stroke-width="3.125" stroke="#000000" fill="#FFFFFF"/>
   <g id="svg_71">
    <path id="svg_72" d="m106.97301,608.22699c0,0.39099 -0.369,0.70898 -0.81799,0.70898l-2.869,0c-0.451,0 -0.81799,-0.31799 -0.81799,-0.70898l0,-28.85199c0,-0.39099 0.36699,-0.70898 0.81799,-0.70898l2.869,0c0.44899,0 0.81799,0.31799 0.81799,0.70898l0,28.85199z" stroke-width="2" stroke="#000000"/>
    <rect id="svg_73" height="22.498" width="12.746" stroke-width="2" stroke="#000000" y="578.699" x="106.027"/>
    <path id="svg_74" d="m121.38901,608.21503c0,0.39099 -0.367,0.70898 -0.81799,0.70898l-2.869,0c-0.44901,0 -0.81801,-0.31799 -0.81801,-0.70898l0,-28.85199c0,-0.39099 0.369,-0.70898 0.81801,-0.70898l2.869,0c0.45099,0 0.81799,0.31799 0.81799,0.70898l0,28.85199z" stroke-width="2" stroke="#000000"/>
   </g>
   <path id="svg_75" d="m273.492,554.40198c0,-0.586 -0.24399,-1.06403 -0.54501,-1.06403l-8.33798,0c-0.29901,0 -0.54501,0.479 -0.54501,1.06403l0,33.76599c0,0.586 0.246,1.06403 0.54501,1.06403l8.33798,0c0.30103,0 0.54501,-0.479 0.54501,-1.06403l0,-33.76599z" stroke-width="3.125" stroke="#000000" fill="#FFFFFF"/>
   <g id="svg_76">
    <path id="svg_77" d="m263.97299,608.48798c0,0.39099 -0.36899,0.70898 -0.81799,0.70898l-2.86899,0c-0.45102,0 -0.81802,-0.31799 -0.81802,-0.70898l0,-28.85199c0,-0.39099 0.367,-0.70898 0.81802,-0.70898l2.86899,0c0.44901,0 0.81799,0.31799 0.81799,0.70898l0,28.85199z" stroke-width="2" stroke="#000000"/>
    <rect id="svg_78" height="22.498" width="12.746" stroke-width="2" stroke="#000000" y="578.961" x="263.027"/>
    <path id="svg_79" d="m278.38901,608.47699c0,0.39099 -0.367,0.70898 -0.81802,0.70898l-2.86899,0c-0.44901,0 -0.81799,-0.31799 -0.81799,-0.70898l0,-28.85199c0,-0.39099 0.36899,-0.70898 0.81799,-0.70898l2.86899,0c0.45102,0 0.81802,0.31799 0.81802,0.70898l0,28.85199z" stroke-width="2" stroke="#000000"/>
   </g>
  </g>
  <path id="svg_80" d="m272.35199,460.52899l-71.459,-12.58801c-3.79599,-0.66998 -7.44499,2.04498 -8.15298,6.06201c-0.70801,4.01599 1.795,7.81201 5.591,8.48199l63.80699,11.23999l10.21399,-13.19598z" stroke-width="3.125" stroke="#000000" fill="#FFFFFF"/>
  <path id="svg_81" d="m297.19299,452.22699l-33.84601,6.81598c-3.77798,0.76001 -6.18799,4.617 -5.383,8.61505c0.80499,3.99799 4.52002,6.62299 8.297,5.86096l36.867,-7.422l-5.935,-13.87z" stroke-width="3.125" stroke="#000000" fill="#FFFFFF"/>
  <path id="svg_82" d="m169.464,413.492c0.29399,0.93903 1.226,2.78101 2.07199,4.08997l10.173,15.75201c0.84599,1.30902 2.80901,2.48999 4.36101,2.62299l19.13899,1.65002c1.55299,0.13501 4.088,0.414 5.63301,0.62299l43.52899,5.86499c1.545,0.20905 4.05701,0.117 5.582,-0.20294l36.12,-7.59601c1.526,-0.32001 3.79599,-1.34601 5.04401,-2.27899l18.323,-13.69904c1.24899,-0.93402 2.505,-2.95099 2.793,-4.48401l0.237,-1.26599c0.28699,-1.53101 -0.754,-2.78497 -2.31201,-2.78497l-148.39499,0c-1.558,0 -2.593,0.76996 -2.299,1.70898z" stroke-width="3.125" stroke="#000000" fill="#FFFFFF"/>
  <path id="svg_83" d="m355.23199,381.896c0.664,1.62701 0.02701,3.43802 -1.41599,4.02701l-10.77301,4.40399c-1.44199,0.59 -3.168,-0.258 -3.832,-1.883l-6.05301,-14.811c-0.66498,-1.62698 -0.02698,-3.439 1.414,-4.02798l10.77499,-4.40302c1.44202,-0.59 3.16702,0.258 3.83203,1.883l6.05298,14.811z" stroke-width="3.125" stroke="#000000" fill="#FFFFFF"/>
  <path id="svg_84" d="m339.72501,329.33801c0.229,1.741 -0.84799,3.332 -2.39401,3.535l-11.54001,1.51898c-1.54498,0.20401 -2.99799,-1.056 -3.22699,-2.79599l-2.08798,-15.86301c-0.229,-1.742 0.849,-3.332 2.39499,-3.535l11.539,-1.51999c1.54599,-0.203 2.99799,1.056 3.22699,2.797l2.08801,15.86301z" stroke-width="3.125" stroke="#000000" fill="#FFFFFF"/>
  <path id="svg_85" d="m154.93201,422.953c-1.545,-0.021 -4.041,0.25 -5.54599,0.604l-3.39,0.797c-1.438,0.63898 -3.597,0.26202 -4.79701,-0.84198c0,0 -6.08,-8.117 -6.396,-12.59399s0.287,-3.27106 0.939,-6.01202c0.65001,-2.73999 3.29901,-8.57001 6.84601,-9.28699c3.548,-0.71704 38.912,-1.77301 40.457,-1.75403l119.349,1.375c1.54599,0.01801 14.62201,1.00201 14.62201,1.00201c1.54099,0.12701 4.009,0.65997 5.48199,1.18402c0,0 5.08099,3.06396 5.50598,4.74799l0.57401,2.27698c0.42401,1.68604 0.52301,4.46899 0.22101,6.18604c0,0 -0.509,2.87897 -1.56702,4.55896c-1.06,1.67999 -5.215,6.38904 -5.215,6.38904c-1.09299,1.23798 -3.246,2.37897 -4.785,2.53497l-6.26498,0.63501c-1.539,0.15601 -4.06201,0.26599 -5.60699,0.24402l-150.42801,-2.04602z" stroke-width="3.125" stroke="#000000" fill="#FFFFFF"/>
  <path id="svg_86" d="m267.457,397.17603c6.79199,28.29901 11.77301,51.36298 11.12698,51.52002l-18.21399,-0.65002c-0.646,0.15399 -6.36,-17.71301 -13.15298,-46.01202l0,0c-6.793,-28.30496 -11.77402,-51.36996 -11.12701,-51.52496l17.896,-4.29501c0.647,-0.15701 6.67599,22.65598 13.47101,50.96201l0,0z" stroke-width="3.125" stroke="#000000" fill="#FFFFFF"/>
  <path id="svg_87" d="m260.56601,359.405c-2.991,-12.46301 -8.13,-32.70999 -8.095,-32.73999c0,0 1.659,-9.62302 8.08899,-9.54901s-53.45099,-0.815 -46.26801,-0.69101s10.85901,8.36902 10.85901,8.36902c1.86899,9.40399 5.18201,24.24899 9.18001,40.90799c6.76599,28.18802 12.92899,44.871 13.76698,44.67001l23.20001,0.43402c0.83899,-0.20203 -3.966,-23.21304 -10.73199,-51.40103z" stroke-width="3.125" stroke="#000000" fill="#FFFFFF"/>
  <path id="svg_88" d="m289.017,461.78497c0,0 -2.565,1.92401 -2.77798,4.27301s0.85498,4.06201 7.90598,5.12897c7.05301,1.06799 8.97702,1.07001 15.81302,-0.21295c6.83701,-1.28503 47.64899,-24.78503 51.92398,-27.56403s5.34302,-6.19897 5.77002,-12.82202c0.427,-6.625 -14.103,-38.24799 -14.103,-38.24799s-22.43802,-55.77097 -23.29202,-60.04495c-0.85397,-4.27301 -1.06699,-8.76001 1.069,-17.73401c2.13702,-8.97598 30.77002,-163.88998 33.33401,-167.311s6.19598,-2.35098 6.19598,-2.35098s2.99103,1.92398 5.76901,0.854c2.77899,-1.07001 2.564,-4.48502 1.496,-7.69202s-17.09399,-7.267 -19.87201,-3.205c-2.991,5.76802 -46.79599,170.304 -46.36798,189.53401s29.35199,85.89697 29.35199,85.89697s9.11099,23.64502 6.97501,26.63501s-7.69302,9.26404 -24.146,12.896c-9.24002,2.04102 -30.983,9.18903 -30.983,9.18903l-4.06201,2.77795z" stroke-width="3.125" stroke="#000000" fill="#FFFFFF"/>
  <circle id="svg_89" r="2.885" cy="455.906" cx="200.662"/>
  <path id="svg_90" d="m344.06601,310.14001c-0.215,1.116 -1.21301,1.87201 -2.22101,1.67899l-7.521,-1.44c-1.008,-0.19199 -1.65701,-1.26498 -1.44299,-2.38199l1.94897,-10.17401c0.21402,-1.11697 1.21301,-1.871 2.22,-1.67798l7.522,1.44c1.008,0.19199 1.65802,1.26498 1.44302,2.38199l-1.94901,10.173z" stroke-width="3.125" stroke="#000000" fill="#FFFFFF"/>
  <g id="svg_91">
   <path id="svg_92" d="m308.01999,273.12c0,0 0.00803,-0.15298 0.01801,-0.39499c-0.186,0.46899 -0.21799,0.655 -0.01801,0.39499z" stroke-linecap="round" stroke-width="2" stroke="#000000" fill="#D9D9D9"/>
   <path id="svg_93" d="m262.5,165.59299l-5.5,58.5c2.5,20 5.5,33.5 5.5,33.5c0.047,2.10602 -3.63699,3.82401 -5.60001,4.51401c0,0 -7.229,0.422 -14.35899,2.49799c-7.129,2.07401 -11.42601,3.55099 -13.26799,4.51401l-12.77701,2.72699c-1.84201,0.96301 -8.375,2.19101 -10.354,2.815l-39.75,7.78c-1.96899,0.62003 -5.28101,1.271 -7.35201,1.44501c0,0 -14.47699,-6.767 -16.02699,-7.16998c-3.97701,-1.052 -17.29201,-6.707 -17.29201,-6.707c-2.06499,0.11499 -5.55399,2.16898 -8.18999,3.32397l-18.35201,9.10901c-2.68001,1.61401 -19.64301,7.612 -20.423,8.60501c-1.168,1.483 0.099,6.62 2.62401,6.33099c1.567,-0.18701 21.209,-2.79999 22.319,-2.923c3.97,-0.46399 12.67099,-2.009 16.88699,-1.646c1.47,0.13699 11.04001,4.92001 12.52299,5.21701c10.58701,2.13699 17.80801,-1.625 23.104,1.34598c4.166,2.33401 50.02299,3.97702 50.02299,3.97702c2.08002,-0.03302 5.46701,-0.10699 7.53702,-0.17001c0,0 11.47499,-0.349 13.47499,-0.13901c2.01199,0.21201 26.27299,0.59402 29.33202,0.401c3.06097,-0.19998 25.11697,-1.798 25.11697,-1.798c1.87701,-0.90997 5.582,-1.78897 7.57401,-2.34l8.896,-3.32397c1.996,-0.561 4.32401,-2.59302 5.16,-4.52502l1.646,-3.81598c0.83002,-1.936 1.73001,-5.229 1.97501,-7.32401l6.03299,-66.32001c0.57401,-1.97601 1.061,-5.311 1.086,-7.41998c0,0 2.34601,-37.91803 2.43002,-40.48001" stroke-linecap="round" stroke-width="2" stroke="#000000" fill="#D9D9D9"/>
  </g>
  <g id="svg_94">
   <path id="svg_95" d="m420.33099,608.32098c0,0.38898 -0.36899,0.70898 -0.81799,0.70898l-2.86899,0c-0.45102,0 -0.81802,-0.32001 -0.81802,-0.70898l0,-28.854c0,-0.38898 0.367,-0.70898 0.81802,-0.70898l2.86899,0c0.44901,0 0.81799,0.32001 0.81799,0.70898l0,28.854z" stroke-width="2" stroke="#000000"/>
   <rect id="svg_96" height="22.5" width="12.746" stroke-width="2" stroke="#000000" y="578.792" x="419.385"/>
   <path id="svg_97" d="m434.74701,608.31c0,0.38898 -0.367,0.70898 -0.81799,0.70898l-2.86902,0c-0.44901,0 -0.81799,-0.32001 -0.81799,-0.70898l0,-28.854c0,-0.38898 0.36899,-0.70898 0.81799,-0.70898l2.86902,0c0.45099,0 0.81799,0.32001 0.81799,0.70898l0,28.854z" stroke-width="2" stroke="#000000"/>
  </g>
  <path id="svg_98" d="m1023.875,309.073c0,4.078 -3.125,7.38501 -6.979,7.38501l-106.65601,0c-3.854,0 -6.979,-3.30701 -6.979,-7.38501l0,0c0,-4.078 3.12402,-7.38501 6.979,-7.38501l106.65601,0c3.854,0 6.979,3.30701 6.979,7.38501l0,0z" stroke-width="3.125" stroke="#000000" fill="#FFFFFF"/>
  <path id="svg_99" d="m292.875,310.073c0,4.078 -3.125,7.38501 -6.979,7.38501l-106.65599,0c-3.85399,0 -6.97899,-3.30701 -6.97899,-7.38501l0,0c0,-4.078 3.12399,-7.38501 6.97899,-7.38501l106.65599,0c3.854,0 6.979,3.30701 6.979,7.38501l0,0z" stroke-width="3.125" stroke="#000000" fill="#FFFFFF"/>
  <path id="svg_100" d="m1006.604,180.72299l-13.10699,44.42599c-0.78003,1.94699 -1.16803,5.086 -2.073,6.97l-3.96704,21.84799c-0.547,2.035 -2.68195,3.793 -4.75995,3.90302c0,0 -17.61401,-2.70801 -25.04102,-2.71701c-7.42499,-0.009 -11.96399,-0.79599 -14.00201,-0.38901l-13.02802,0.03101c-3.78101,0.75702 -28.66699,1.32202 -28.66699,1.32202c-2.06299,0.04199 -18.87,0.94598 -18.87,0.94598s-14.49597,-5.30899 -16.008,-5.841c-3.87402,-1.38 -16.672,-8.125 -16.672,-8.125c-2.06799,-0.05798 -5.71399,1.69901 -8.43799,2.629l-19.04901,7.54602c-2.80499,1.38498 -20.20898,5.94699 -21.06799,6.87299c-1.28802,1.38 -0.453,6.604 2.086,6.52701c1.578,-0.05402 21.36896,-1.021 22.48602,-1.052c3.99402,-0.13101 12.79395,-0.944 16.96497,-0.23102c1.453,0.259 10.59198,5.82501 12.04303,6.24402c10.37299,3.01199 25.64697,1.884 25.64697,1.884c7.05798,3.18201 30.85901,6.638 30.85901,6.638c2.00598,0.55298 5.27698,1.431 7.28198,1.952c0,0 11.11102,2.88501 12.97198,3.647c1.87201,0.76801 25.052,7.94098 28.04205,8.61499c2.99298,0.66602 24.612,5.32101 24.612,5.32101c2.05701,-0.34601 5.85999,-0.151 7.927,-0.121l9.47198,-0.694c2.073,0.022 4.87799,-1.276 6.22296,-2.896l2.65002,-3.20102c1.341,-1.62601 3.12903,-4.534 3.95099,-6.47699l10.87494,-15.633c1.34705,-1.40402 3.34106,-3.966 4.44006,-5.702l10.91699,-19.00101c1.10498,-1.73502 7.50793,-18.79901 8.125,-20.81799c0,0 5.43396,-26.47202 4.23193,-35.90701l-47.05591,-8.517z" stroke-linecap="round" stroke-width="2" stroke="#000000" fill="#D9D9D9"/>
  <rect id="svg_101" height="19.613" width="68.997" fill="#D9D9D9" y="169.177" x="990.366"/>
 </g>
</svg>